# xmcd CD database file
#
# Track frame offsets:
#	150
#	13123
#	25859
#	39836
#	53200
#	67520
#	84058
#	98023
#	111907
#	127653
#	140686
#	156067
#	171434
#	182769
#	194252
#	210335
#
# Disc length: 2972 seconds
#
# Revision: 1
# Processed by: cddbd v1.5.2PL0 Copyright (c) Steve Scherf et al.
# Submitted via: CDex 1.70beta2
#
DISCID=c00b9a10
DTITLE=Gerry Mulligan - One Man One Sax CD01 - Waterworks
DYEAR=1900
DGENRE=Jazz
TTITLE0=Kai Winding Sextett - Wallington's Godchild
TTITLE1=Kai Winding Sextett - Crossing The Channel
TTITLE2=Kai Winding Sextett - Sleepy Bop
TTITLE3=Kai Winding Sextett - Bop City
TTITLE4=Kai Winding Sextett - Broadway
TTITLE5=Kai Winding Sextett - Waterworks
TTITLE6=Elliott Lawrence and His Orchestra - Between The Devil And The Deep Blue Sea
TTITLE7=Chubby Jackson Big Band - Flying The Coop
TTITLE8=Chubby Jackson Big Band - New York
TTITLE9=Chubby Jackson Big Band - Sax Appeal
TTITLE10=Chubby Jackson Big Band - Hot Dog
TTITLE11=Chubby Jackson Big Band - Why Not
TTITLE12=Chubby Jackson Big Band - Leavin' Town
TTITLE13=Gerry Mulligan Trio - Get Happy
TTITLE14=Gerry Mulligan Trio - S Wonderful
TTITLE15=Gerry Mulligan Trio - Godchild
EXTD=
EXTT0=
EXTT1=
EXTT2=
EXTT3=
EXTT4=
EXTT5=
EXTT6=
EXTT7=
EXTT8=
EXTT9=
EXTT10=
EXTT11=
EXTT12=
EXTT13=
EXTT14=
EXTT15=
PLAYORDER=
